<?xml version="1.0" encoding="utf-8"?>
<!-- Generator: Adobe Illustrator 26.0.2, SVG Export Plug-In . SVG Version: 6.00 Build 0)  -->
<svg version="1.1" id="Layer_1" xmlns="http://www.w3.org/2000/svg" xmlns:xlink="http://www.w3.org/1999/xlink" x="0px" y="0px"
	 viewBox="0 0 226.1 59.6" style="enable-background:new 0 0 226.1 59.6;" xml:space="preserve">
<style type="text/css">
	.st0{fill:#FFFFFF;}
</style>
<path class="st0" d="M216.8,52.7c0.1,3.2-2.5,5.9-5.7,6s-5.9-2.5-6-5.7c-0.1-3.2,2.5-5.9,5.7-6c0.1,0,0.2,0,0.2,0
	C214.2,46.9,216.8,49.5,216.8,52.7C216.8,52.7,216.8,52.7,216.8,52.7z M206.6,52.7c-0.1,2.5,1.9,4.5,4.3,4.6c0.1,0,0.1,0,0.2,0
	c2.4,0,4.4-2,4.4-4.4c0,0,0-0.1,0-0.1c0-2.4-2-4.4-4.4-4.4C208.6,48.3,206.6,50.2,206.6,52.7C206.6,52.7,206.6,52.7,206.6,52.7
	L206.6,52.7z M210.1,55.7h-1.3v-5.8c0.7-0.1,1.5-0.2,2.2-0.2c0.7-0.1,1.4,0.1,2,0.4c0.4,0.3,0.6,0.7,0.6,1.2c0,0.7-0.5,1.3-1.2,1.4
	l0,0c0.6,0.2,0.8,0.6,1,1.4c0.1,0.5,0.2,1,0.4,1.4h-1.4c-0.2-0.4-0.4-0.9-0.4-1.4c-0.1-0.6-0.5-0.9-1.2-0.9H210L210.1,55.7z
	 M210.1,52.4h0.6c0.7,0,1.3-0.2,1.3-0.8s-0.4-0.9-1.2-0.9c-0.2,0-0.5,0-0.7,0.1L210.1,52.4z"/>
<path class="st0" d="M174.2,5c-10.8-3.8-23.2-2.6-33,0.4l5.4,35.2L123.5,2.9l-23,45.6c-4.1-14.9-7.2-30-9.5-45.2L71.3,36.2L49.4,1.4
	l-3.7,35.5c-0.1-0.4-0.2-0.6-0.2-0.6v-0.1c-0.2-0.4-0.5-1-0.7-1.3c-3.2-5.7-13.8-9.1-21.3-11.7C4.4,16.7,10.2,10,20.6,8.4
	c7.2-1.1,15.4,0.2,20.5,3.4l2.6-7.7C29.3-3.5-2.7-1.4,2.5,18.5c3,11.5,27.3,13.2,33,19.9c0.6,0.6,1.1,1.3,1.4,2.1
	c0.5,1.1,0.5,2.4,0.1,3.6c-0.1,0.4-0.2,0.8-0.3,1.2c-0.2,0.4-0.4,0.7-0.6,1c-3.7,4.7-11.1,4.8-17.8,4c-7.8-0.9-14.7-4.8-15.1-5.7
	L0,52.8c12.2,6.6,35.5,10.5,44.2-1.7l0.1-0.1l-0.8,7.8l9.2-0.2l2.8-32.1l16.2,25.6l15.1-25.6c0,0,1.6,6.6,4.5,18.8
	c1,4.8,2.4,9.5,4,14.2l7.9-0.6l7.8-15.8h28l10.5,15.8h8.7l-4.6-27.5c5.8,8,21.6,18.6,34.2,23l-0.8,4.8l9.1,0.2l8-47l19.1,0.2l3-7.7
	L174.2,5z M114.9,35.5l9.2-18.5l9.9,18.5H114.9z M151.9,21.1l-1.6-10.4c5.5-3.3,23.2-1.3,21.3,4.2S152.3,22.8,151.9,21.1L151.9,21.1
	z M189.1,46.9c-10.9-3.9-27.7-16.5-28.4-19.1c6.2-0.5,19.4-4,17.9-15.3l15.8,0.1L189.1,46.9z"/>
<path class="st0" d="M66.2,24.6"/>
<path class="st0" d="M66.2,24.6"/>
<path class="st0" d="M73.1,36.2"/>
</svg>
