<?xml version="1.0" encoding="utf-8"?>
<!-- Generator: Adobe Illustrator 28.0.0, SVG Export Plug-In . SVG Version: 6.00 Build 0)  -->
<svg version="1.1" id="Layer_1" xmlns="http://www.w3.org/2000/svg" xmlns:xlink="http://www.w3.org/1999/xlink" x="0px" y="0px"
	 viewBox="0 0 805.6 100" style="enable-background:new 0 0 805.6 100;" xml:space="preserve">
<style type="text/css">
	.st0{fill:#7A869A;}
</style>
<path class="st0" d="M505,74.8c0-14.2-7.6-20.9-28.8-25.5c-11.8-2.5-14.6-5.2-14.6-9c0-4.6,4.2-6.7,11.9-6.7
	c9.4,0,18.7,2.8,27.5,6.9V21.8c-6.1-3.1-15.7-5.5-26.9-5.5c-21,0-31.9,9.1-31.9,24.2c0,11.9,5.5,21.5,27.3,25.7
	c13,2.7,15.7,4.8,15.7,9.1c0,4.2-2.7,6.9-11.9,6.9c-10.6,0-23.3-3.6-31.5-8.5v19.6c6.6,3.3,15.2,6.9,31.3,6.9
	C496.1,100,505,89.9,505,74.8z"/>
<path class="st0" d="M734.7,17.5v81.3h17.3V36.7l7.3,16.6l24.5,45.5h21.8V17.5h-17.3V70l-6.6-15.2l-19.7-37.3H734.7z"/>
<path class="st0" d="M624.6,17.5h-19v81.2h19V17.5z"/>
<path class="st0" d="M583.8,74.8c0-14.2-7.6-20.9-28.8-25.5c-11.8-2.5-14.6-5.2-14.6-9c0-4.6,4.2-6.7,11.9-6.7
	c9.4,0,18.7,2.8,27.5,6.9V21.8c-6.1-3.1-15.7-5.5-26.9-5.5c-21,0-31.9,9.1-31.9,24.2c0,11.9,5.5,21.5,27.3,25.7
	c13,2.7,15.7,4.8,15.7,9.1c0,4.2-2.7,6.9-11.9,6.9c-10.6,0-23.3-3.6-31.5-8.5v19.6c6.6,3.3,15.2,6.9,31.3,6.9
	C574.9,100,583.8,89.9,583.8,74.8z"/>
<path class="st0" d="M295.3,17.5v81.3h39l6.1-17.6h-26V17.5H295.3z"/>
<path class="st0" d="M218.6,17.5v17.6h20.9v63.7h19.1V35.1h22.5V17.5H218.6z"/>
<path class="st0" d="M191,17.5h-24.9l-28.4,81.2h21.6l4-13.7c4.8,1.3,9.9,2.2,15.2,2.2c5.2,0,10.3-0.7,15.2-2.2l4,13.7h21.6
	L191,17.5z M178.5,70.4c-3.6,0-7.2-0.6-10.4-1.5l10.4-35.5L188.9,69C185.6,69.9,182.1,70.4,178.5,70.4z"/>
<path class="st0" d="M401.3,17.5h-24.9L348,98.7h21.6l4-13.7c4.8,1.3,9.9,2.2,15.2,2.2c5.2,0,10.3-0.7,15.2-2.2l4,13.7h21.6
	L401.3,17.5z M388.9,70.4c-3.6,0-7.2-0.6-10.4-1.5l10.4-35.5L399.4,69C395.9,69.9,392.5,70.4,388.9,70.4z"/>
<path class="st0" d="M692.8,17.5h-24.9l-28.4,81.2h21.6l4-13.7c4.8,1.3,9.8,2.2,15.2,2.2c5.2,0,10.3-0.7,15.2-2.2l4,13.7h21.6
	L692.8,17.5z M680.3,70.4c-3.6,0-7.2-0.6-10.4-1.5l10.4-35.5L690.7,69C687.4,69.9,684,70.4,680.3,70.4z"/>
<path class="st0" d="M28.5,46.1c-0.4-0.6-1.3-0.9-2.1-0.9c-0.6,0.1-1.2,0.6-1.5,1.2L0.3,95.7c-0.6,1-0.1,2.4,0.9,2.8
	c0.3,0.1,0.6,0.3,0.9,0.3h34.3c0.7,0,1.6-0.4,1.9-1.2C45.6,82.7,41.2,59.6,28.5,46.1z"/>
<path class="st0" d="M98.8,95.7C98.2,94.8,52.7,3.4,51.5,1.2C51.2,0.4,50.6,0,49.8,0h-0.1c-0.7,0-1.5,0.4-1.9,1.2
	C35.3,20.7,34,44.5,44,64.5l16.6,33c0.3,0.7,1,1.2,1.9,1.2h34.3c1.2,0,2.1-0.9,2.1-2.1C98.9,96.3,98.9,96,98.8,95.7z"/>
</svg>
