<?xml version="1.0" encoding="utf-8"?>
<!-- Generator: Adobe Illustrator 24.1.1, SVG Export Plug-In . SVG Version: 6.00 Build 0)  -->
<svg version="1.1" id="Layer_1" xmlns="http://www.w3.org/2000/svg" xmlns:xlink="http://www.w3.org/1999/xlink" x="0px" y="0px"
	 viewBox="0 0 242 242" style="enable-background:new 0 0 242 242;" xml:space="preserve">
<style type="text/css">
	.st0{opacity:0.28;}
	.st1{fill:url(#Path_369_6_);}
	.st2{opacity:0.67;}
	.st3{fill:url(#Path_369-2_6_);}
	.st4{fill:url(#Path_369-3_6_);}
	.st5{fill:url(#Path_951_1_);}
	.st6{fill:url(#Path_369_7_);}
	.st7{fill:url(#Path_369-2_7_);}
	.st8{fill:url(#Path_369-3_7_);}
	.st9{fill:url(#Path_371_1_);}
	.st10{fill:url(#Path_372_1_);}
	.st11{fill:url(#Path_373_1_);}
	.st12{fill:url(#Path_374_1_);}
	.st13{fill:url(#Path_375_1_);}
	.st14{fill:url(#Path_376_1_);}
	.st15{fill:url(#Path_377_1_);}
	.st16{fill:url(#Path_369_8_);}
	.st17{fill:url(#Path_369-2_8_);}
	.st18{fill:url(#Path_369-3_8_);}
	.st19{fill:url(#Path_952_1_);}
	.st20{fill:url(#Path_369_9_);}
	.st21{fill:url(#Path_369-2_9_);}
	.st22{fill:url(#Path_369-3_9_);}
	.st23{fill:url(#Document_1_);}
	.st24{fill:url(#Path_369_10_);}
	.st25{fill:url(#Path_369-2_10_);}
	.st26{fill:url(#Path_369-3_10_);}
	.st27{fill:url(#Path_953_1_);}
	.st28{fill:#FFFFFF;}
	.st29{fill:url(#Path_369_11_);}
	.st30{fill:url(#Path_369-2_11_);}
	.st31{fill:url(#Path_369-3_11_);}
	.st32{fill:url(#Path_369-4_1_);}
	.st33{fill:url(#Path_369-5_1_);}
	.st34{fill:url(#Path_369-6_1_);}
	.st35{fill:url(#Path_369-7_1_);}
	.st36{fill:url(#Path_369-8_1_);}
	.st37{fill:url(#Path_369-9_1_);}
</style>
<g>
	<g id="Group_185" transform="translate(-647.253 219.93)">
		<g id="Group_143" transform="translate(662.296 -204.888)" class="st0">
			<g id="Group_142">
				
					<linearGradient id="Path_369_6_" gradientUnits="userSpaceOnUse" x1="276.2965" y1="576.6073" x2="277.2965" y2="576.6073" gradientTransform="matrix(241.4572 0 0 -241.4053 -66728.8594 139301.7188)">
					<stop  offset="0" style="stop-color:#171717"/>
					<stop  offset="0.118" style="stop-color:#F0F8F9"/>
					<stop  offset="0.352" style="stop-color:#008EA0"/>
					<stop  offset="0.625" style="stop-color:#259EAE"/>
					<stop  offset="0.905" style="stop-color:#E8F5F7"/>
					<stop  offset="1" style="stop-color:#171717"/>
				</linearGradient>
				<path id="Path_369" class="st1" d="M21.94,192.67c-5.76-5.57-10.95-11.68-15.51-18.27c-18.31-26.28-25.35-58.79-19.55-90.29
					c5.63-31.53,23.64-59.5,50.02-77.67C91.7-31.51,166.9-17.87,204.86,36.92s24.32,129.99-30.47,167.95l0,0
					C127.14,237.59,63.39,232.49,21.94,192.67L21.94,192.67z M188.11,20.26C147.35-18.98,84.59-24.07,38.05,8.09
					C12.1,25.96-5.61,53.46-11.15,84.47c-5.71,30.98,1.21,62.96,19.22,88.8c37.34,53.89,111.29,67.31,165.18,29.97
					c53.9-37.38,67.29-111.38,29.9-165.28C198.73,31.58,193.69,25.65,188.11,20.26z"/>
			</g>
		</g>
		<g id="Group_145" transform="matrix(0.616, -0.788, 0.788, 0.616, 647.253, -67.524)" class="st2">
			<g id="Group_142-2">
				
					<linearGradient id="Path_369-2_6_" gradientUnits="userSpaceOnUse" x1="-166.892" y1="500.5641" x2="-165.892" y2="500.5641" gradientTransform="matrix(119.1431 152.3777 152.4103 -119.1176 -56404.5938 85132.1875)">
					<stop  offset="0" style="stop-color:#171717"/>
					<stop  offset="0.118" style="stop-color:#F0F8F9"/>
					<stop  offset="0.352" style="stop-color:#008EA0"/>
					<stop  offset="0.625" style="stop-color:#259EAE"/>
					<stop  offset="0.905" style="stop-color:#E8F5F7"/>
					<stop  offset="1" style="stop-color:#171717"/>
				</linearGradient>
				<path id="Path_369-2" class="st3" d="M32.19,145.27c-4.61-4.46-8.77-9.36-12.42-14.63C5.09,109.58-0.54,83.53,4.11,58.3
					C8.62,33.04,23.05,10.63,44.18-3.93C88.1-34.28,148.3-23.36,178.75,20.49c30.35,43.92,19.43,104.11-24.42,134.57
					C116.47,181.26,65.39,177.17,32.19,145.27z M165.33,7.13C132.67-24.31,82.39-28.39,45.09-2.62
					C24.31,11.7,10.11,33.74,5.68,58.58c-4.57,24.82,0.97,50.44,15.4,71.15c29.92,43.18,89.17,53.92,132.34,24.01
					c43.18-29.95,53.91-89.24,23.96-132.42C173.83,16.21,169.79,11.45,165.33,7.13L165.33,7.13z"/>
			</g>
		</g>
		<g id="Group_146" transform="matrix(0.799, 0.602, -0.602, 0.799, 768.683, -186.008)">
			<g id="Group_142-3">
				
					<linearGradient id="Path_369-3_6_" gradientUnits="userSpaceOnUse" x1="470.4719" y1="342.7936" x2="471.4719" y2="342.7936" gradientTransform="matrix(116.1818 -87.5376 -87.5363 -116.1836 -24674.4902 81080.7656)">
					<stop  offset="0" style="stop-color:#171717"/>
					<stop  offset="0.118" style="stop-color:#F0F8F9"/>
					<stop  offset="0.352" style="stop-color:#008EA0"/>
					<stop  offset="0.625" style="stop-color:#259EAE"/>
					<stop  offset="0.905" style="stop-color:#E8F5F7"/>
					<stop  offset="1" style="stop-color:#171717"/>
				</linearGradient>
				<path id="Path_369-3" class="st4" d="M1.24,122.19c-3.47-3.35-6.6-7.04-9.34-11C-19.13,95.36-23.37,75.77-19.87,56.8
					c3.39-18.99,14.24-35.84,30.13-46.78C43.27-12.8,88.53-4.59,111.42,28.37c22.82,33.02,14.61,78.27-18.36,101.17
					c-15.83,11.03-35.41,15.27-54.39,11.77C24.58,138.8,11.55,132.14,1.24,122.19z M101.33,18.33C76.78-5.3,38.98-8.37,10.94,11
					c-15.63,10.76-26.3,27.33-29.63,46.01c-3.44,18.66,0.73,37.92,11.58,53.49c10.76,15.63,27.33,26.3,46.01,29.63
					c18.66,3.44,37.92-0.73,53.49-11.58c32.42-22.52,40.5-67.03,18.05-99.5C107.76,25.19,104.71,21.6,101.33,18.33z"/>
			</g>
		</g>
	</g>
	
		<linearGradient id="Path_951_1_" gradientUnits="userSpaceOnUse" x1="289.0555" y1="591.6282" x2="290.6445" y2="592.7762" gradientTransform="matrix(58.719 0 0 -58.717 -16894.5488 34887.9805)">
		<stop  offset="0" style="stop-color:#218E9F"/>
		<stop  offset="1" style="stop-color:#FFFFFF;stop-opacity:0"/>
	</linearGradient>
	<path id="Path_951" class="st5" d="M149.69,91.48H92.87c-0.52,0-0.95,0.42-0.95,0.95l0,0v39.78c0,0.52,0.42,0.95,0.95,0.95h27.47
		v15.15H99.5c-0.52,0-0.95,0.42-0.95,0.95s0.42,0.95,0.95,0.95c0,0,0,0,0,0h43.56c0.52,0,0.95-0.42,0.95-0.95s-0.42-0.95-0.95-0.95
		l0,0h-20.83v-15.15h27.46c0.52,0,0.95-0.42,0.95-0.95l0,0V92.42C150.64,91.9,150.21,91.48,149.69,91.48z M93.81,106.63h54.93v11.37
		H93.81V106.63z M148.74,93.37v11.36H93.81V93.37H148.74z M93.81,131.25v-11.36h54.93v11.36H93.81z M124.12,101.89
		c1.57,0,2.84-1.27,2.84-2.84c0-1.57-1.27-2.84-2.84-2.84c-1.57,0-2.84,1.27-2.84,2.84l0,0
		C121.28,100.62,122.55,101.89,124.12,101.89C124.12,101.89,124.12,101.89,124.12,101.89L124.12,101.89z M124.12,98.11
		c0.52,0,0.95,0.42,0.95,0.95c0,0.52-0.42,0.95-0.95,0.95s-0.95-0.42-0.95-0.95l0,0C123.17,98.53,123.6,98.11,124.12,98.11z
		 M133.59,101.89c1.57,0,2.84-1.27,2.84-2.84c0-1.57-1.27-2.84-2.84-2.84c-1.57,0-2.84,1.27-2.84,2.84l0,0
		C130.75,100.62,132.02,101.89,133.59,101.89L133.59,101.89z M133.59,98.11c0.52,0,0.95,0.42,0.95,0.95c0,0.52-0.42,0.95-0.95,0.95
		c-0.52,0-0.95-0.42-0.95-0.95l0,0C132.64,98.53,133.07,98.11,133.59,98.11L133.59,98.11z M143.06,101.89
		c1.57,0,2.84-1.27,2.84-2.84c0-1.57-1.27-2.84-2.84-2.84c-1.57,0-2.84,1.27-2.84,2.84l0,0
		C140.22,100.62,141.49,101.89,143.06,101.89L143.06,101.89z M143.06,98.11c0.52,0,0.95,0.42,0.95,0.95c0,0.52-0.42,0.95-0.95,0.95
		s-0.95-0.42-0.95-0.95l0,0C142.11,98.53,142.54,98.11,143.06,98.11L143.06,98.11z M124.12,109.47c-1.57,0-2.84,1.27-2.84,2.84
		c0,1.57,1.27,2.84,2.84,2.84c1.57,0,2.84-1.27,2.84-2.84l0,0C126.96,110.74,125.69,109.47,124.12,109.47z M124.12,113.26
		c-0.52,0-0.95-0.42-0.95-0.95c0-0.52,0.42-0.95,0.95-0.95s0.95,0.42,0.95,0.95l0,0C125.07,112.83,124.64,113.26,124.12,113.26
		C124.12,113.26,124.12,113.26,124.12,113.26L124.12,113.26z M133.59,109.47c-1.57,0-2.84,1.27-2.84,2.84
		c0,1.57,1.27,2.84,2.84,2.84c1.57,0,2.84-1.27,2.84-2.84l0,0C136.43,110.74,135.16,109.47,133.59,109.47
		C133.59,109.47,133.59,109.47,133.59,109.47L133.59,109.47z M133.59,113.26c-0.52,0-0.95-0.42-0.95-0.95
		c0-0.52,0.42-0.95,0.95-0.95s0.95,0.42,0.95,0.95l0,0C134.54,112.83,134.11,113.26,133.59,113.26
		C133.59,113.26,133.59,113.26,133.59,113.26L133.59,113.26z M143.06,109.47c-1.57,0-2.84,1.27-2.84,2.84
		c0,1.57,1.27,2.84,2.84,2.84c1.57,0,2.84-1.27,2.84-2.84l0,0C145.9,110.74,144.63,109.47,143.06,109.47
		C143.06,109.47,143.06,109.47,143.06,109.47L143.06,109.47z M143.06,113.26c-0.52,0-0.95-0.42-0.95-0.95
		c0-0.52,0.42-0.95,0.95-0.95c0.52,0,0.95,0.42,0.95,0.95l0,0C144.01,112.83,143.59,113.26,143.06,113.26
		C143.06,113.26,143.06,113.26,143.06,113.26L143.06,113.26z M124.12,122.73c-1.57,0-2.84,1.27-2.84,2.84
		c0,1.57,1.27,2.84,2.84,2.84c1.57,0,2.84-1.27,2.84-2.84l0,0C126.96,124,125.69,122.73,124.12,122.73z M124.12,126.52
		c-0.52,0-0.95-0.42-0.95-0.95c0-0.52,0.42-0.95,0.95-0.95s0.95,0.42,0.95,0.95c0,0,0,0,0,0
		C125.07,126.09,124.64,126.52,124.12,126.52C124.12,126.52,124.12,126.52,124.12,126.52z M133.59,122.73
		c-1.57,0-2.84,1.27-2.84,2.84c0,1.57,1.27,2.84,2.84,2.84c1.57,0,2.84-1.27,2.84-2.84l0,0C136.43,124,135.16,122.73,133.59,122.73
		C133.59,122.73,133.59,122.73,133.59,122.73L133.59,122.73z M133.59,126.52c-0.52,0-0.95-0.42-0.95-0.95
		c0-0.52,0.42-0.95,0.95-0.95s0.95,0.42,0.95,0.95c0,0,0,0,0,0C134.54,126.09,134.11,126.52,133.59,126.52
		C133.59,126.52,133.59,126.52,133.59,126.52L133.59,126.52z M143.06,122.73c-1.57,0-2.84,1.27-2.84,2.84
		c0,1.57,1.27,2.84,2.84,2.84c1.57,0,2.84-1.27,2.84-2.84l0,0C145.9,124,144.63,122.73,143.06,122.73
		C143.06,122.73,143.06,122.73,143.06,122.73L143.06,122.73z M143.06,126.52c-0.52,0-0.95-0.42-0.95-0.95
		c0-0.52,0.42-0.95,0.95-0.95c0.52,0,0.95,0.42,0.95,0.95c0,0,0,0,0,0C144.01,126.09,143.58,126.52,143.06,126.52
		C143.06,126.52,143.06,126.52,143.06,126.52L143.06,126.52z M98.55,102.84h5.68c0.52,0,0.95-0.42,0.95-0.95c0,0,0,0,0,0v-5.68
		c0-0.52-0.42-0.95-0.95-0.95l0,0h-5.68c-0.52,0-0.95,0.42-0.95,0.95l0,0v5.68C97.6,102.42,98.02,102.84,98.55,102.84
		C98.55,102.84,98.55,102.84,98.55,102.84z M99.49,97.16h3.79v3.79H99.5L99.49,97.16z M104.23,108.52h-5.68
		c-0.52,0-0.95,0.42-0.95,0.95c0,0,0,0,0,0v5.68c0,0.52,0.42,0.95,0.95,0.95l0,0h5.68c0.52,0,0.95-0.42,0.95-0.95c0,0,0,0,0,0v-5.68
		C105.18,108.95,104.75,108.52,104.23,108.52C104.23,108.52,104.23,108.52,104.23,108.52L104.23,108.52z M103.28,114.21H99.5v-3.79
		h3.79L103.28,114.21z M104.23,121.78h-5.68c-0.52,0-0.95,0.42-0.95,0.95v5.68c0,0.52,0.42,0.95,0.95,0.95h5.68
		c0.52,0,0.95-0.42,0.95-0.95v-5.68C105.18,122.21,104.76,121.78,104.23,121.78C104.23,121.78,104.23,121.78,104.23,121.78
		L104.23,121.78z M103.28,127.47H99.5v-3.79h3.79L103.28,127.47z"/>
</g>
</svg>
