<?xml version="1.0" encoding="utf-8"?>
<!-- Generator: Adobe Illustrator 24.1.1, SVG Export Plug-In . SVG Version: 6.00 Build 0)  -->
<svg version="1.1" id="Layer_1" xmlns="http://www.w3.org/2000/svg" xmlns:xlink="http://www.w3.org/1999/xlink" x="0px" y="0px"
	 viewBox="0 0 242 242" style="enable-background:new 0 0 242 242;" xml:space="preserve">
<style type="text/css">
	.st0{opacity:0.28;}
	.st1{fill:url(#Path_369_6_);}
	.st2{opacity:0.67;}
	.st3{fill:url(#Path_369-2_6_);}
	.st4{fill:url(#Path_369-3_6_);}
	.st5{fill:url(#Path_951_1_);}
	.st6{fill:url(#Path_369_7_);}
	.st7{fill:url(#Path_369-2_7_);}
	.st8{fill:url(#Path_369-3_7_);}
	.st9{fill:url(#Path_371_1_);}
	.st10{fill:url(#Path_372_1_);}
	.st11{fill:url(#Path_373_1_);}
	.st12{fill:url(#Path_374_1_);}
	.st13{fill:url(#Path_375_1_);}
	.st14{fill:url(#Path_376_1_);}
	.st15{fill:url(#Path_377_1_);}
	.st16{fill:url(#Path_369_8_);}
	.st17{fill:url(#Path_369-2_8_);}
	.st18{fill:url(#Path_369-3_8_);}
	.st19{fill:url(#Path_952_1_);}
	.st20{fill:url(#Path_369_9_);}
	.st21{fill:url(#Path_369-2_9_);}
	.st22{fill:url(#Path_369-3_9_);}
	.st23{fill:url(#Document_1_);}
	.st24{fill:url(#Path_369_10_);}
	.st25{fill:url(#Path_369-2_10_);}
	.st26{fill:url(#Path_369-3_10_);}
	.st27{fill:url(#Path_953_1_);}
	.st28{fill:#FFFFFF;}
	.st29{fill:url(#Path_369_11_);}
	.st30{fill:url(#Path_369-2_11_);}
	.st31{fill:url(#Path_369-3_11_);}
	.st32{fill:url(#Path_369-4_1_);}
	.st33{fill:url(#Path_369-5_1_);}
	.st34{fill:url(#Path_369-6_1_);}
	.st35{fill:url(#Path_369-7_1_);}
	.st36{fill:url(#Path_369-8_1_);}
	.st37{fill:url(#Path_369-9_1_);}
</style>
<g id="Group_187" transform="translate(-647.253 219.93)">
	<g id="Group_143_2_" transform="translate(662.296 -204.888)" class="st0">
		<g id="Group_142_2_">
			
				<linearGradient id="Path_369_6_" gradientUnits="userSpaceOnUse" x1="-245.531" y1="576.6042" x2="-244.531" y2="576.6042" gradientTransform="matrix(241.4572 0 0 -241.4053 59270.6914 139301.7188)">
				<stop  offset="0" style="stop-color:#171717"/>
				<stop  offset="0.118" style="stop-color:#F0F8F9"/>
				<stop  offset="0.352" style="stop-color:#008EA0"/>
				<stop  offset="0.625" style="stop-color:#259EAE"/>
				<stop  offset="0.905" style="stop-color:#E8F5F7"/>
				<stop  offset="1" style="stop-color:#171717"/>
			</linearGradient>
			<path id="Path_369_2_" class="st1" d="M22.52,193.42c-5.76-5.57-10.95-11.68-15.51-18.27c-18.31-26.28-25.35-58.79-19.55-90.29
				c5.63-31.53,23.64-59.5,50.02-77.67c54.79-37.96,129.99-24.32,167.95,30.47s24.32,129.99-30.47,167.95l0,0
				C127.71,238.33,63.96,233.23,22.52,193.42L22.52,193.42z M188.69,21C147.93-18.24,85.17-23.33,38.62,8.84
				C12.68,26.7-5.04,54.21-10.57,85.22c-5.71,30.98,1.21,62.96,19.22,88.8c37.34,53.89,111.29,67.31,165.18,29.97
				c53.9-37.38,67.29-111.38,29.9-165.28C199.31,32.33,194.27,26.4,188.69,21z"/>
		</g>
	</g>
	<g id="Group_145_2_" transform="matrix(0.616, -0.788, 0.788, 0.616, 647.253, -67.524)" class="st2">
		<g id="Group_142-2_2_">
			
				<linearGradient id="Path_369-2_6_" gradientUnits="userSpaceOnUse" x1="-486.8355" y1="87.8131" x2="-485.8355" y2="87.8131" gradientTransform="matrix(119.1431 152.3777 152.4103 -119.1176 44621.75 84719.4375)">
				<stop  offset="0" style="stop-color:#171717"/>
				<stop  offset="0.118" style="stop-color:#F0F8F9"/>
				<stop  offset="0.352" style="stop-color:#008EA0"/>
				<stop  offset="0.625" style="stop-color:#259EAE"/>
				<stop  offset="0.905" style="stop-color:#E8F5F7"/>
				<stop  offset="1" style="stop-color:#171717"/>
			</linearGradient>
			<path id="Path_369-2_2_" class="st3" d="M31.96,146.18c-4.61-4.46-8.77-9.36-12.42-14.63C4.86,110.49-0.78,84.45,3.87,59.21
				C8.39,33.95,22.82,11.54,43.95-3.02C87.86-33.37,148.06-22.45,178.52,21.4c30.35,43.92,19.43,104.11-24.42,134.57
				C116.24,182.17,65.16,178.08,31.96,146.18z M165.09,8.04C132.44-23.4,82.15-27.48,44.86-1.71C24.07,12.61,9.88,34.65,5.45,59.49
				c-4.57,24.82,0.97,50.44,15.4,71.15c29.92,43.18,89.17,53.92,132.34,24.01c43.18-29.95,53.91-89.24,23.96-132.42
				C173.6,17.12,169.56,12.37,165.09,8.04L165.09,8.04z"/>
		</g>
	</g>
	<g id="Group_146_2_" transform="matrix(0.799, 0.602, -0.602, 0.799, 768.683, -186.008)">
		<g id="Group_142-3_2_">
			
				<linearGradient id="Path_369-3_6_" gradientUnits="userSpaceOnUse" x1="55.7373" y1="657.9827" x2="56.7373" y2="657.9827" gradientTransform="matrix(116.1818 -87.5376 -87.5363 -116.1836 51101.5195 81395.9609)">
				<stop  offset="0" style="stop-color:#171717"/>
				<stop  offset="0.118" style="stop-color:#F0F8F9"/>
				<stop  offset="0.352" style="stop-color:#008EA0"/>
				<stop  offset="0.625" style="stop-color:#259EAE"/>
				<stop  offset="0.905" style="stop-color:#E8F5F7"/>
				<stop  offset="1" style="stop-color:#171717"/>
			</linearGradient>
			<path id="Path_369-3_2_" class="st4" d="M2.15,122.44c-3.47-3.35-6.6-7.04-9.34-11c-11.03-15.83-15.27-35.41-11.77-54.39
				c3.39-18.99,14.24-35.84,30.13-46.78C44.18-12.55,89.44-4.34,112.33,28.62c22.82,33.02,14.61,78.27-18.36,101.17
				c-15.83,11.03-35.41,15.27-54.39,11.77C25.49,139.05,12.45,132.39,2.15,122.44z M102.24,18.58C77.69-5.05,39.89-8.12,11.85,11.25
				c-15.63,10.76-26.3,27.33-29.63,46.01c-3.44,18.66,0.73,37.92,11.58,53.49c10.76,15.63,27.33,26.3,46.01,29.63
				c18.66,3.44,37.92-0.73,53.49-11.58c32.42-22.52,40.5-67.03,18.05-99.5C108.67,25.44,105.62,21.85,102.24,18.58z"/>
		</g>
	</g>
</g>
<linearGradient id="Path_952_1_" gradientUnits="userSpaceOnUse" x1="-227.6896" y1="591.475" x2="-226.1006" y2="592.623" gradientTransform="matrix(81.065 0 0 -69.3046 18522.2891 41150.0664)">
	<stop  offset="0" style="stop-color:#218E9F"/>
	<stop  offset="1" style="stop-color:#FFFFFF;stop-opacity:0"/>
</linearGradient>
<path id="Path_952" class="st19" d="M141.9,98.29c-4.37-7.46-12.42-11.98-21.06-11.83c-11.01,0-20.46,6.87-22.91,16.49
	c-9.78,0.32-17.63,7.64-17.63,16.6c0,8.5,7.21,15.67,16.49,16.5c0.16,0.07,0.33,0.1,0.5,0.1h7.85v18.3c0,0.72,0.58,1.31,1.31,1.31
	l0,0h28.77c0.72,0,1.31-0.59,1.31-1.31v0v-18.3h5.23c0.16,0,0.32-0.03,0.46-0.09c10.77-0.82,19.15-9.04,19.15-18.87
	C161.37,107.14,152.88,98.97,141.9,98.29z M133.91,153.14h-26.15v-36.61h26.15V153.14z M141.68,133.47
	c-0.11,0.01-0.21,0.03-0.32,0.06h-4.84v-18.31c0-0.72-0.58-1.31-1.31-1.31l0,0h-28.77c-0.72,0-1.31,0.59-1.31,1.31v0v18.31h-7.44
	c-0.1-0.03-0.21-0.06-0.32-0.06c-8.11-0.56-14.47-6.68-14.47-13.93c0-7.71,7.03-13.99,15.79-13.99h0.01c0.09,0,0.17,0.01,0.26,0.01
	c0.62,0,1.16-0.44,1.28-1.06c1.76-8.94,10.41-15.43,20.58-15.43c8.23,0,15.72,4.35,19.09,11.07c0.21,0.43,0.65,0.71,1.13,0.72
	c9.92,0.3,17.7,7.47,17.7,16.32C158.76,125.75,151.26,132.9,141.68,133.47L141.68,133.47z"/>
</svg>
