<?xml version="1.0" encoding="utf-8"?>
<!-- Generator: Adobe Illustrator 28.0.0, SVG Export Plug-In . SVG Version: 6.00 Build 0)  -->
<svg version="1.1" id="Layer_1" xmlns="http://www.w3.org/2000/svg" xmlns:xlink="http://www.w3.org/1999/xlink" x="0px" y="0px"
	 viewBox="0 0 276.6 75" style="enable-background:new 0 0 276.6 75;" xml:space="preserve">
<style type="text/css">
	.st0{fill:#7A869A;}
</style>
<path class="st0" d="M114.7,62.1h-0.1C114.7,62.1,114.7,62.2,114.7,62.1L114.7,62.1L114.7,62.1L114.7,62.1z M114.7,62.2
	c-0.6,0-2,0.3-3.5,0.3c-4.8,0-6.5-2.2-6.5-5.2V38h9.8c0.5,0,1-0.5,1-1.2V26.3c0-0.5-0.5-1-1-1h-9.8v-13c0-0.5-0.3-0.8-0.9-0.8H90.4
	c-0.5,0-0.9,0.3-0.9,0.8v13.4c0,0-6.7,1.6-7.2,1.7c-0.5,0.1-0.8,0.5-0.8,1v8.4c0,0.7,0.5,1.2,1,1.2h6.9v20.3
	c0,15.1,10.5,16.6,17.7,16.6c3.3,0,7.3-1,7.9-1.3c0.4-0.1,0.5-0.5,0.5-1v-9.3C115.7,62.8,115.3,62.3,114.7,62.2L114.7,62.2z
	 M261.5,48.5c0-11.2-4.5-12.7-9.3-12.2c-3.7,0.2-6.7,2.1-6.7,2.1v21.8c0,0,3,2.1,7.6,2.2C259.5,62.7,261.5,60.4,261.5,48.5z
	 M276.6,47.6c0,21.2-6.9,27.3-18.9,27.3c-10.1,0-15.6-5.2-15.6-5.2s-0.2,2.8-0.5,3.2c-0.2,0.4-0.5,0.5-0.9,0.5h-9.1
	c-0.6,0-1.2-0.5-1.2-1l0.2-68.8c0-0.5,0.5-1,1-1h13.2c0.5,0,1,0.5,1,1v23.3c0,0,5.1-3.3,12.5-3.3l-0.1-0.1
	C265.6,23.6,276.6,26.3,276.6,47.6z M222.6,25.2h-13c-0.7,0-1,0.5-1,1.2v33.7c0,0-3.4,2.4-8,2.4s-6-2.1-6-6.7V26.3c0-0.5-0.5-1-1-1
	h-13.3c-0.5,0-1,0.5-1,1V58c0,13.6,7.6,17,18.1,17c8.6,0,15.6-4.8,15.6-4.8s0.3,2.4,0.5,2.8c0.2,0.3,0.5,0.5,1,0.5h8.3
	c0.7,0,1-0.5,1-1l0.2-46.3C223.7,25.7,223.3,25.2,222.6,25.2L222.6,25.2z M75.8,25.1H62.6c-0.5,0-1,0.5-1,1.3v45.4
	c0,1.3,0.8,1.6,1.9,1.6h11.9c1.3,0,1.6-0.5,1.6-1.6V26.2C76.9,25.7,76.3,25.1,75.8,25.1z M69.3,4.2c-4.8,0-8.5,3.8-8.5,8.5
	s3.7,8.5,8.5,8.5c4.6,0,8.4-3.7,8.4-8.5S73.9,4.2,69.3,4.2z M171.4,2.7h-13c-0.5,0-1,0.5-1,1v25.3h-20.5V3.8c0-0.5-0.5-1-1-1h-13.2
	c-0.5,0-1,0.5-1,1v68.8c0,0.5,0.5,1,1,1h13.1c0.5,0,1-0.5,1-1V43.1h20.5l-0.1,29.4c0,0.5,0.5,1,1,1h13.2c0.5,0,1-0.5,1-1V3.8
	C172.5,3.2,172,2.7,171.4,2.7z M54.5,33.2v35.5c0,0.2-0.1,0.7-0.4,0.8c0,0-7.7,5.5-20.5,5.5C18.3,75,0,70.2,0,38.3S16-0.1,31.6,0
	c13.5,0,19,3,19.8,3.6c0.3,0.3,0.4,0.5,0.4,0.8l-2.6,11c0,0.5-0.5,1.3-1.3,1c-2.2-0.7-5.5-2-13.4-2c-9.1,0-18.9,2.6-18.9,23.1
	s9.3,22.9,16,22.9c5.7,0,7.7-0.7,7.7-0.7V45.6h-9c-0.7,0-1.2-0.5-1.2-1V33.2c0-0.5,0.5-1,1.2-1h23.2C54.1,32.1,54.5,32.6,54.5,33.2z
	"/>
</svg>
