<?xml version="1.0" encoding="utf-8"?>
<!-- Generator: Adobe Illustrator 24.1.1, SVG Export Plug-In . SVG Version: 6.00 Build 0)  -->
<svg version="1.1" id="Layer_1" xmlns="http://www.w3.org/2000/svg" xmlns:xlink="http://www.w3.org/1999/xlink" x="0px" y="0px"
	 viewBox="0 0 191.51 94" style="enable-background:new 0 0 191.51 94;" xml:space="preserve">
<style type="text/css">
	.st0{fill-rule:evenodd;clip-rule:evenodd;fill:#6EA0D2;}
	.st1{fill:none;stroke:#6EA0D2;stroke-width:1.5722;stroke-miterlimit:2.6131;}
	.st2{fill-rule:evenodd;clip-rule:evenodd;fill:#0B0C0B;}
</style>
<g>
	<path class="st0" d="M18.02,51.45c-0.23-1.72-0.55-2.59-1.25-3.53c-1.02-1.41-2.59-2.12-4.63-2.12c-2.12,0-3.76,0.71-4.94,2.19
		c-1.18,1.33-1.72,3.21-1.72,5.33c0,4.63,2.59,7.6,6.58,7.6c2.04,0,3.76-0.86,4.86-2.35c0.63-0.86,0.86-1.57,1.1-3.06l-3.37-0.16
		c-0.24,1.88-1.1,2.74-2.59,2.74c-1.88,0-2.74-1.41-2.74-4.63c0-3.29,0.86-4.94,2.67-4.94c0.94,0,1.72,0.47,2.04,1.25
		c0.24,0.55,0.39,0.94,0.39,1.88L18.02,51.45L18.02,51.45z"/>
	<polygon class="st0" points="39.89,48.78 39.89,46.04 29.39,46.04 29.39,60.7 39.89,60.7 39.89,57.8 32.91,57.8 32.91,54.58 
		38.4,54.58 38.4,51.84 32.91,51.84 32.91,48.78 39.89,48.78 	"/>
	<path class="st0" d="M54.78,54.9h2.43l2.27,5.8h3.84l-2.74-6.51c0.71-0.31,1.02-0.47,1.33-0.86c0.78-0.71,1.18-1.8,1.18-2.9
		c0-1.33-0.55-2.67-1.49-3.45c-0.94-0.71-1.96-0.94-3.84-0.94h-6.43V60.7h3.45V54.9L54.78,54.9z M54.78,48.63h2.04
		c1.33,0,1.65,0.08,2.04,0.39c0.47,0.31,0.71,0.86,0.71,1.41c0,0.63-0.31,1.33-0.86,1.65c-0.39,0.23-0.71,0.31-1.8,0.31h-2.12V48.63
		L54.78,48.63z"/>
	<polygon class="st0" points="84.49,46.04 73.75,46.04 73.75,48.94 77.36,48.94 77.36,60.7 80.89,60.7 80.89,48.94 84.49,48.94 
		84.49,46.04 	"/>
	<polygon class="st0" points="95.31,60.7 98.76,60.7 98.76,46.04 95.31,46.04 95.31,60.7 	"/>
	<polygon class="st0" points="121.5,48.94 121.5,46.04 111.07,46.04 111.07,60.7 114.68,60.7 114.68,54.98 120.08,54.98 
		120.08,52.23 114.68,52.23 114.68,48.94 121.5,48.94 	"/>
	<polygon class="st0" points="132.63,60.7 136.08,60.7 136.08,46.04 132.63,46.04 132.63,60.7 	"/>
	<polygon class="st0" points="158.89,48.78 158.89,46.04 148.38,46.04 148.38,60.7 158.89,60.7 158.89,57.8 151.91,57.8 
		151.91,54.58 157.4,54.58 157.4,51.84 151.91,51.84 151.91,48.78 158.89,48.78 	"/>
	<path class="st0" d="M170.33,46.04V60.7h5.02c2.27,0,3.92-0.71,5.17-2.12c1.18-1.41,1.8-3.21,1.8-5.25c0-2.12-0.63-3.92-1.88-5.25
		c-1.33-1.57-2.82-2.04-5.64-2.04H170.33L170.33,46.04z M173.7,48.71h1.49c1.18,0,1.96,0.39,2.59,1.18
		c0.63,0.94,1.02,2.04,1.02,3.37c0,1.33-0.39,2.59-1.02,3.53c-0.63,0.78-1.49,1.18-2.67,1.18h-1.41V48.71L173.7,48.71z"/>
	<line class="st1" x1="5.71" y1="68.54" x2="181.78" y2="68.54"/>
	<path class="st0" d="M68.11,83.67h2.51c1.8,0,2.9-0.31,3.68-0.94c0.86-0.78,1.41-1.96,1.41-3.06c0-1.18-0.63-2.35-1.49-2.9
		c-0.63-0.47-1.41-0.63-2.98-0.63H67.8l-2.12,12.62h1.57L68.11,83.67L68.11,83.67z M68.27,82.41l0.86-5.02h2.67
		c0.55,0,1.18,0.16,1.49,0.39c0.47,0.31,0.78,1.1,0.78,1.88c0,1.02-0.47,1.96-1.18,2.35c-0.55,0.31-1.1,0.39-2.9,0.39H68.27
		L68.27,82.41z"/>
	<path class="st0" d="M83.16,88.76v-0.39c0-0.31,0.08-0.94,0.16-1.72c0.71-4.31,0.71-4.55,0.71-5.02c0-1.49-1.57-2.51-3.68-2.51
		c-1.88,0-3.29,0.78-4,2.12l1.41,0.63c0.63-1.18,1.41-1.65,2.67-1.65c1.41,0,2.12,0.63,2.12,1.8c0,0.31,0,0.47-0.08,0.94H82.3
		c-0.86,0-0.86,0-1.25,0c-1.33,0-2.43,0.08-3.06,0.31c-1.65,0.47-2.59,1.57-2.59,2.98c0,1.57,1.25,2.74,2.98,2.74
		c1.41,0,2.51-0.63,3.53-2.12c-0.16,0.55-0.24,0.86-0.24,1.41c0,0.08,0,0.24,0.08,0.47H83.16L83.16,88.76z M82.3,84.06
		c-0.16,0.86-0.31,1.33-0.71,1.96c-0.78,1.1-1.88,1.8-2.98,1.8c-1.02,0-1.65-0.55-1.65-1.57c0-0.78,0.47-1.41,1.33-1.8
		c0.63-0.31,1.49-0.47,2.74-0.47C81.52,83.98,81.75,84.06,82.3,84.06L82.3,84.06z"/>
	<path class="st0" d="M86.92,88.76l0.31-2.12c0.31-1.88,0.55-2.82,0.94-3.68c0.78-1.57,1.72-2.35,2.98-2.35h0.39l0.31-1.49h-0.39
		c-1.49,0-2.35,0.78-3.45,2.74l0.47-2.43H87l-1.57,9.33H86.92L86.92,88.76z"/>
	<path class="st0" d="M94.92,80.53h2.12l0.16-1.1h-2.12L95.47,77l-1.41,0.16l-0.31,2.27h-1.49l-0.16,1.1h1.41l-0.78,4.39
		c-0.24,1.49-0.24,1.49-0.24,2.04c0,1.33,0.86,1.96,2.35,1.96c0.24,0,0.39,0,0.63,0l0.47-0.08h0.31l0.16-1.18l-0.31,0.08
		c-0.39,0-0.71,0.08-1.02,0.08c-0.71,0-1.18-0.39-1.18-1.02c0-0.23,0.08-0.71,0.16-1.18L94.92,80.53L94.92,80.53z"/>
	<path class="st0" d="M104.88,88.76l0.94-5.41c0.08-0.63,0.16-1.18,0.16-1.57c0-1.49-1.18-2.67-2.74-2.67
		c-1.41,0-2.43,0.78-3.29,2.35l0.31-2.04H99l-1.57,9.33h1.41l0.55-3.37c0.31-1.72,0.55-2.67,1.02-3.45c0.63-1.1,1.49-1.65,2.43-1.65
		c1.02,0,1.73,0.71,1.73,1.72c0,0.24,0,0.78-0.16,1.33l-0.86,5.41H104.88L104.88,88.76z"/>
	<path class="st0" d="M114.2,86.02c-0.94,1.33-1.65,1.8-2.82,1.8c-1.49,0-2.51-1.18-2.51-2.9c0-0.24,0.08-0.39,0.08-0.71h6.9
		c0-0.47,0.08-0.71,0.08-1.1c0-2.51-1.41-4-3.76-4c-2.74,0-4.78,2.43-4.78,5.64c0,2.59,1.57,4.23,4,4.23c1.72,0,2.98-0.71,4-2.43
		L114.2,86.02L114.2,86.02z M109.11,83.12c0.39-1.72,1.57-2.9,3.06-2.9c1.33,0,2.27,1.02,2.27,2.43v0.47H109.11L109.11,83.12z"/>
	<path class="st0" d="M118.28,88.76l0.39-2.12c0.24-1.88,0.55-2.82,0.94-3.68c0.71-1.57,1.65-2.35,2.9-2.35h0.47l0.24-1.49h-0.31
		c-1.49,0-2.43,0.78-3.53,2.74l0.47-2.43h-1.41l-1.57,9.33H118.28L118.28,88.76z"/>
	<path class="st2" d="M8.45,23.93L5.87,35.69h8.31l2.9-11.76l0.94-3.68l0.08,3.68l0.24,11.76h5.88l5.88-11.76l1.88-3.68l-0.86,3.68
		l-2.59,11.76h8.31l2.59-11.76l1.41-6.51L43.18,7H31.81L26.8,17.43l-2.74,5.57l-0.16-5.57L23.58,7H12.22L9.87,17.43L8.45,23.93
		L8.45,23.93z M50.55,17.43l0.63-3.06H43.5l-0.63,3.06l-1.49,6.51l-2.67,11.68l7.76,0.08l2.59-11.76L50.55,17.43L50.55,17.43z
		 M71.64,17.43c-1.18-1.8-3.37-3.37-7.45-3.61c-4.39-0.24-7.84,1.25-10.27,3.61c-1.96,1.8-3.29,4.15-3.92,6.51
		c-1.49,5.88,1.1,12.23,8.54,12.39c10.66,0.16,13.09-8.39,13.09-8.47h-8c-0.23,0.31-1.41,3.14-3.76,3.06
		c-2.9-0.08-3.14-3.68-2.04-6.98c0.94-2.59,2.82-4.94,4.94-5.02c2.51-0.08,2.27,3.06,2.12,3.37h8
		C72.89,22.13,73.05,19.62,71.64,17.43L71.64,17.43z M88.18,17.43l0.86-3.37c-1.33,0-2.43,0.16-3.61,0.55
		c-1.41,0.47-2.59,1.25-3.53,2.43l0.55-2.67h-6.9l-0.71,3.06l-1.49,6.51l-2.59,11.76h7.29l1.72-7.6c0.39-1.8,1.02-3.14,1.65-4.15
		c1.65-2.59,3.76-2.98,4.94-3.06c-0.47,1.02-0.86,2.04-1.1,3.06c-1.57,5.88,1.1,12.15,9.09,12.39c6.11,0.24,10.66-3.06,12.62-6.98
		c-0.24,2.51,0.86,6.98,10.82,7.06c11.13,0.16,12.07-6.9,11.99-8.47c-0.08-1.88-0.71-3.14-1.65-4c-1.88-1.72-5.02-2.04-7.84-2.67
		c-3.45-0.71-2.74-3.45,0.31-3.45c3.29,0,2.51,2.74,2.51,2.74h7.37c0-0.16,0.39-1.65-0.24-3.14c-0.63-1.88-2.74-3.92-8.86-4
		c-4.39,0-8.47,1.02-10.27,4c-0.39,0.71-0.71,1.49-0.78,2.43c-0.31,1.72,0.24,3.06,1.1,4.08c2.04,2.35,6.11,3.06,7.45,3.29
		c4.31,0.78,3.06,4.31-0.08,4.31c-4.63,0.08-3.45-3.21-3.45-3.21h-14.35l6.43-2.19c0.63-0.24,1.02-0.47,1.1-1.02
		c0.08-0.39,0.16-0.78,0.23-1.18c0.24-2.43-0.23-4.7-1.49-6.51c-1.49-2.2-4.08-3.68-7.76-3.92c-4.47-0.24-8.07,1.41-10.58,3.92
		c-0.39,0.39-0.78,0.78-1.1,1.25L88.18,17.43L88.18,17.43z M152.93,17.43c-1.49-2.2-4-3.68-7.68-3.92
		c-4.47-0.16-8.07,1.41-10.58,3.92c-1.88,1.8-3.14,4.15-3.68,6.51c-1.49,5.88,1.18,12.07,9.17,12.39
		c8.62,0.39,13.8-6.19,14.35-12.39C154.65,21.58,154.18,19.23,152.93,17.43L152.93,17.43z M180.84,17.43l0.71-3.06h-3.68l1.1-5.17
		h-7.06l-1.1,5.17h-4.55l0.08-0.55c0.39-1.57,0.55-2.51,2.98-2.51l0.78-4c0,0-5.96-0.71-8.39,1.1c-1.57,1.25-2.2,2.74-2.9,5.96
		h-3.84l-0.63,3.06l-0.47,1.88h3.92l-1.02,4.62l-2.51,11.68h7.6l2.59-11.68l1.02-4.62h4.23l-1.02,4.62l-1.33,6.11
		c-0.63,2.82,0.31,4.16,1.25,4.78c2.12,1.41,8.23,0.71,8.23,0.71l1.18-4.86c0,0-2.98,0.31-3.29-0.47c-0.16-0.63,0-1.1,0.08-1.57
		l1.02-4.7l1.02-4.62h3.61L180.84,17.43L180.84,17.43z M183.35,17.43c-0.16-0.31-0.23-0.63-0.23-0.94c0-1.1,0.94-1.96,2.04-1.96
		c1.1,0,1.96,0.86,1.96,1.96c0,0.31-0.08,0.63-0.16,0.94c-0.39,0.63-1.02,1.1-1.8,1.1S183.66,18.05,183.35,17.43L183.35,17.43z
		 M187.27,17.43c0.16-0.31,0.24-0.63,0.24-0.94c0-1.25-1.1-2.27-2.35-2.27c-1.33,0-2.35,1.02-2.35,2.27c0,0.31,0.08,0.63,0.16,0.94
		c0.39,0.78,1.18,1.41,2.2,1.41C186.09,18.84,186.95,18.21,187.27,17.43L187.27,17.43z M184.44,17.43l0.24-0.86h0.39l0.31,0.86
		l0.16,0.23h0.39l-0.08-0.23l-0.39-0.86c0.39,0,0.71-0.31,0.78-0.71c0-0.39-0.24-0.71-0.78-0.71l-0.86,0.08l-0.55,2.2l-0.08,0.23
		h0.39L184.44,17.43L184.44,17.43z M185.85,15.86c0,0.39-0.47,0.39-0.78,0.39h-0.31l0.08-0.78h0.55
		C185.7,15.47,185.85,15.55,185.85,15.86L185.85,15.86z M52.9,7h-7.76l-1.02,4.63h7.68L52.9,7L52.9,7z M93.27,23.93
		c1.02-3.06,3.21-5.8,5.64-5.41c2.12,0.31,2.67,2.74,2.27,5.41c-0.63,3.61-3.21,7.6-6.35,6.98C92.41,30.36,92.18,26.99,93.27,23.93
		L93.27,23.93z M138.98,23.93c1.02-3.06,3.21-5.8,5.64-5.41c2.12,0.31,2.74,2.74,2.27,5.41c-0.63,3.61-3.14,7.6-6.27,6.98
		C138.11,30.36,137.88,26.99,138.98,23.93L138.98,23.93z"/>
</g>
</svg>
