<?xml version="1.0" encoding="utf-8"?>
<!-- Generator: Adobe Illustrator 24.1.1, SVG Export Plug-In . SVG Version: 6.00 Build 0)  -->
<svg version="1.1" id="Layer_1" xmlns="http://www.w3.org/2000/svg" xmlns:xlink="http://www.w3.org/1999/xlink" x="0px" y="0px"
	 viewBox="0 0 242 242" style="enable-background:new 0 0 242 242;" xml:space="preserve">
<style type="text/css">
	.st0{opacity:0.28;}
	.st1{fill:url(#Path_369_6_);}
	.st2{opacity:0.67;}
	.st3{fill:url(#Path_369-2_6_);}
	.st4{fill:url(#Path_369-3_6_);}
	.st5{fill:url(#Path_951_1_);}
	.st6{fill:url(#Path_369_7_);}
	.st7{fill:url(#Path_369-2_7_);}
	.st8{fill:url(#Path_369-3_7_);}
	.st9{fill:url(#Path_371_1_);}
	.st10{fill:url(#Path_372_1_);}
	.st11{fill:url(#Path_373_1_);}
	.st12{fill:url(#Path_374_1_);}
	.st13{fill:url(#Path_375_1_);}
	.st14{fill:url(#Path_376_1_);}
	.st15{fill:url(#Path_377_1_);}
	.st16{fill:url(#Path_369_8_);}
	.st17{fill:url(#Path_369-2_8_);}
	.st18{fill:url(#Path_369-3_8_);}
	.st19{fill:url(#Path_952_1_);}
	.st20{fill:url(#Path_369_9_);}
	.st21{fill:url(#Path_369-2_9_);}
	.st22{fill:url(#Path_369-3_9_);}
	.st23{fill:url(#Document_1_);}
	.st24{fill:url(#Path_369_10_);}
	.st25{fill:url(#Path_369-2_10_);}
	.st26{fill:url(#Path_369-3_10_);}
	.st27{fill:url(#Path_953_1_);}
	.st28{fill:#FFFFFF;}
	.st29{fill:url(#Path_369_11_);}
	.st30{fill:url(#Path_369-2_11_);}
	.st31{fill:url(#Path_369-3_11_);}
	.st32{fill:url(#Path_369-4_1_);}
	.st33{fill:url(#Path_369-5_1_);}
	.st34{fill:url(#Path_369-6_1_);}
	.st35{fill:url(#Path_369-7_1_);}
	.st36{fill:url(#Path_369-8_1_);}
	.st37{fill:url(#Path_369-9_1_);}
</style>
<g id="Group_188" transform="translate(-647.253 219.93)">
	<g id="Group_143_4_" transform="translate(662.296 -204.888)" class="st0">
		<g id="Group_142_4_">
			
				<linearGradient id="Path_369_6_" gradientUnits="userSpaceOnUse" x1="-767.3632" y1="576.6042" x2="-766.3632" y2="576.6042" gradientTransform="matrix(241.4572 0 0 -241.4053 185270.2344 139301.7188)">
				<stop  offset="0" style="stop-color:#171717"/>
				<stop  offset="0.118" style="stop-color:#F0F8F9"/>
				<stop  offset="0.352" style="stop-color:#008EA0"/>
				<stop  offset="0.625" style="stop-color:#259EAE"/>
				<stop  offset="0.905" style="stop-color:#E8F5F7"/>
				<stop  offset="1" style="stop-color:#171717"/>
			</linearGradient>
			<path id="Path_369_4_" class="st1" d="M21.94,193.42c-5.76-5.57-10.95-11.68-15.51-18.27c-18.31-26.28-25.35-58.79-19.55-90.29
				c5.63-31.53,23.64-59.5,50.02-77.67C91.7-30.77,166.9-17.13,204.86,37.67s24.32,129.99-30.47,167.95l0,0
				C127.14,238.33,63.39,233.23,21.94,193.42L21.94,193.42z M188.11,21C147.35-18.24,84.59-23.33,38.05,8.84
				C12.1,26.7-5.61,54.21-11.15,85.22c-5.71,30.98,1.21,62.96,19.22,88.8c37.34,53.89,111.29,67.31,165.18,29.97
				c53.9-37.38,67.29-111.38,29.9-165.28C198.73,32.33,193.69,26.4,188.11,21z"/>
		</g>
	</g>
	<g id="Group_145_4_" transform="matrix(0.616, -0.788, 0.788, 0.616, 647.253, -67.524)" class="st2">
		<g id="Group_142-2_4_">
			
				<linearGradient id="Path_369-2_6_" gradientUnits="userSpaceOnUse" x1="-806.7849" y1="-324.9341" x2="-805.7849" y2="-324.9341" gradientTransform="matrix(119.1431 152.3777 152.4103 -119.1176 145648.0938 84306.6953)">
				<stop  offset="0" style="stop-color:#171717"/>
				<stop  offset="0.118" style="stop-color:#F0F8F9"/>
				<stop  offset="0.352" style="stop-color:#008EA0"/>
				<stop  offset="0.625" style="stop-color:#259EAE"/>
				<stop  offset="0.905" style="stop-color:#E8F5F7"/>
				<stop  offset="1" style="stop-color:#171717"/>
			</linearGradient>
			<path id="Path_369-2_4_" class="st3" d="M31.6,145.73c-4.61-4.46-8.77-9.36-12.42-14.63C4.51,110.04-1.13,83.99,3.52,58.75
				C8.03,33.49,22.46,11.09,43.6-3.47C87.51-33.82,147.71-22.9,178.16,20.94c30.35,43.92,19.43,104.11-24.42,134.57
				C115.89,181.72,64.81,177.63,31.6,145.73z M164.74,7.59C132.08-23.85,81.8-27.93,44.51-2.16C23.72,12.16,9.53,34.2,5.09,59.04
				c-4.57,24.82,0.97,50.44,15.4,71.15c29.92,43.18,89.17,53.92,132.34,24.01c43.18-29.95,53.91-89.24,23.96-132.42
				C173.25,16.66,169.21,11.91,164.74,7.59L164.74,7.59z"/>
		</g>
	</g>
	<g id="Group_146_4_" transform="matrix(0.799, 0.602, -0.602, 0.799, 768.683, -186.008)">
		<g id="Group_142-3_4_">
			
				<linearGradient id="Path_369-3_6_" gradientUnits="userSpaceOnUse" x1="-359.0052" y1="973.1769" x2="-358.0052" y2="973.1769" gradientTransform="matrix(116.1818 -87.5376 -87.5363 -116.1836 126877.5234 81711.1484)">
				<stop  offset="0" style="stop-color:#171717"/>
				<stop  offset="0.118" style="stop-color:#F0F8F9"/>
				<stop  offset="0.352" style="stop-color:#008EA0"/>
				<stop  offset="0.625" style="stop-color:#259EAE"/>
				<stop  offset="0.905" style="stop-color:#E8F5F7"/>
				<stop  offset="1" style="stop-color:#171717"/>
			</linearGradient>
			<path id="Path_369-3_4_" class="st4" d="M1.69,122.78c-3.47-3.35-6.6-7.04-9.34-11C-18.68,95.95-22.92,76.37-19.42,57.4
				c3.39-18.99,14.24-35.84,30.13-46.78C43.72-12.21,88.98-3.99,111.87,28.97c22.82,33.02,14.61,78.27-18.36,101.17
				c-15.83,11.03-35.41,15.27-54.39,11.77C25.03,139.39,11.99,132.73,1.69,122.78z M101.78,18.93C77.23-4.71,39.43-7.77,11.39,11.6
				c-15.63,10.76-26.3,27.33-29.63,46.01c-3.44,18.66,0.73,37.92,11.58,53.49c10.76,15.63,27.33,26.3,46.01,29.63
				c18.66,3.44,37.92-0.73,53.49-11.58c32.42-22.52,40.5-67.03,18.05-99.5C108.21,25.79,105.16,22.19,101.78,18.93z"/>
		</g>
	</g>
</g>
<linearGradient id="Path_953_1_" gradientUnits="userSpaceOnUse" x1="-745.0247" y1="591.5256" x2="-743.4357" y2="592.6736" gradientTransform="matrix(79.352 0 0 -67.8309 59182.2148 40279.1211)">
	<stop  offset="0" style="stop-color:#218E9F"/>
	<stop  offset="1" style="stop-color:#FFFFFF;stop-opacity:0"/>
</linearGradient>
<path id="Path_953" class="st27" d="M140.89,99.51c-4.28-7.3-12.16-11.72-20.62-11.58c-10.77,0-20.02,6.72-22.42,16.14
	c-9.57,0.32-17.25,7.48-17.25,16.24c0,8.32,7.06,15.34,16.14,16.15c0.16,0.07,0.32,0.1,0.49,0.1h6.4v3.84h-5.12
	c-0.71,0-1.28,0.57-1.28,1.28c0,0.29,0.1,0.57,0.28,0.8l10.24,12.8c0.44,0.55,1.25,0.64,1.8,0.2c0.07-0.06,0.14-0.13,0.2-0.2
	l10.24-12.8c0.44-0.55,0.35-1.36-0.2-1.8c-0.23-0.18-0.51-0.28-0.8-0.28h-5.12v-3.84h12.8v8.96c0,0.71,0.57,1.28,1.28,1.28h7.68
	c0.71,0,1.28-0.57,1.28-1.28v-8.96h3.84c0.16,0,0.31-0.03,0.45-0.09c10.54-0.8,18.74-8.84,18.74-18.46
	C159.95,108.18,151.64,100.18,140.89,99.51z M116.34,142.96l-7.57,9.47l-7.57-9.47h3.74c0.71,0,1.28-0.57,1.28-1.28v-15.36h5.12
	v15.36c0,0.71,0.57,1.28,1.28,1.28L116.34,142.96z M134.36,144.24h-5.12v-15.36c0-0.71-0.57-1.28-1.28-1.28c0,0,0,0,0,0h-3.74
	l7.57-9.47l7.57,9.47h-3.74c-0.71,0-1.28,0.57-1.28,1.28c0,0,0,0,0,0L134.36,144.24z M140.68,133.94c-0.1,0.01-0.21,0.03-0.31,0.06
	h-3.46v-3.84h5.12c0.71,0,1.28-0.57,1.28-1.28c0-0.29-0.1-0.57-0.28-0.8l-10.24-12.8c-0.48-0.55-1.32-0.61-1.87-0.13
	c-0.05,0.04-0.09,0.09-0.13,0.13l-10.24,12.8c-0.44,0.55-0.35,1.36,0.2,1.8c0.23,0.18,0.51,0.28,0.8,0.28h5.12V134h-12.8v-8.96
	c0-0.71-0.57-1.28-1.28-1.28c0,0,0,0,0,0h-7.68c-0.71,0-1.28,0.57-1.28,1.28c0,0,0,0,0,0V134h-6c-0.1-0.03-0.21-0.05-0.31-0.06
	c-7.94-0.54-14.16-6.53-14.16-13.63c0-7.55,6.88-13.69,15.45-13.69h0.01c0.08,0,0.17,0.01,0.26,0.01c0.61,0,1.14-0.43,1.26-1.03
	c1.72-8.75,10.19-15.1,20.14-15.1c8.05,0,15.38,4.25,18.68,10.84c0.21,0.42,0.63,0.69,1.1,0.71c9.71,0.29,17.32,7.3,17.32,15.97
	C157.39,126.39,150.05,133.39,140.68,133.94L140.68,133.94z"/>
</svg>
