<?xml version="1.0" encoding="utf-8"?>
<!-- Generator: Adobe Illustrator 28.0.0, SVG Export Plug-In . SVG Version: 6.00 Build 0)  -->
<svg version="1.1" id="Layer_1" xmlns="http://www.w3.org/2000/svg" xmlns:xlink="http://www.w3.org/1999/xlink" x="0px" y="0px"
	 viewBox="0 0 161.1 48" style="enable-background:new 0 0 161.1 48;" xml:space="preserve">
<style type="text/css">
	.st0{fill:#7A869A;}
	.st1{fill-rule:evenodd;clip-rule:evenodd;fill:#FFFFFF;}
	.st2{fill-rule:evenodd;clip-rule:evenodd;fill:#7A869A;}
</style>
<g>
	<path class="st0" d="M10.4,0h27.2C43.3,0,48,4.7,48,10.4v27.2C48,43.3,43.3,48,37.6,48H10.4C4.7,48,0,43.3,0,37.6V10.4
		C0,4.7,4.7,0,10.4,0z"/>
	<path class="st1" d="M33.3,6H28l4.4,7.7L22.8,6h-5.3l4.8,9.4L12.3,6H7l5.3,12L7,42h5.3l10.1-25.7L17.5,42h5.3l9.7-27.4L28.1,42h5.3
		L43,12L33.3,6z"/>
	<g>
		<path class="st2" d="M99.9,4.2c-1.5,1.4-1.5,3.8,0,5.3c1.5,1.5,3.9,1.5,5.3,0c1.5-1.4,1.5-3.9,0-5.3C103.8,2.7,101.4,2.7,99.9,4.2
			z M129.3,14l-3.4,0.5c-6.5,1.5-10.8,3.6-10.8,10.8v14.3l5.9,1.2V26.3c0-3.3,1.9-4.9,4.9-5.4l3.4-0.7V14z M83.9,39.8l5.9,1.2V24.7
			c0-7.8-6.1-10.6-10.3-10.6c-2.9,0-5.1,0.7-7.1,2.7c-2.1-2-4.6-2.7-6.6-2.7c-2.9,0-5.4,1.2-7.1,3.3v-2.7l-5.9,1.2v23.9l5.9,1.2
			V24.5c0-2.6,1.9-4.5,4.8-4.5c2.9,0,4.8,1.8,4.8,4.5v15.3l5.9,1.2V24.5c0-2.6,1.9-4.5,4.8-4.5s4.8,1.8,4.8,4.5L83.9,39.8L83.9,39.8
			z M161.1,27.6c0,7.5-6.1,13.5-13.6,13.5c-7.5,0-13.7-6.1-13.7-13.5c0-7.4,6.1-13.5,13.7-13.5C154.9,14.1,161.1,20.2,161.1,27.6z
			 M147.5,35.5c-4.3,0-7.9-3.5-7.9-7.9c0-4.3,3.6-7.8,7.9-7.8s7.8,3.5,7.8,7.8C155.4,32,151.9,35.5,147.5,35.5z M105.5,41.1
			l-5.9-1.4V15.6l5.9-1.2V41.1z"/>
	</g>
</g>
</svg>
