<?xml version="1.0" encoding="utf-8"?>
<!-- Generator: Adobe Illustrator 24.1.1, SVG Export Plug-In . SVG Version: 6.00 Build 0)  -->
<svg version="1.1" id="Layer_1" xmlns="http://www.w3.org/2000/svg" xmlns:xlink="http://www.w3.org/1999/xlink" x="0px" y="0px"
	 viewBox="0 0 242 242" style="enable-background:new 0 0 242 242;" xml:space="preserve">
<style type="text/css">
	.st0{opacity:0.28;}
	.st1{fill:url(#Path_369_6_);}
	.st2{opacity:0.67;}
	.st3{fill:url(#Path_369-2_6_);}
	.st4{fill:url(#Path_369-3_6_);}
	.st5{fill:url(#Path_951_1_);}
	.st6{fill:url(#Path_369_7_);}
	.st7{fill:url(#Path_369-2_7_);}
	.st8{fill:url(#Path_369-3_7_);}
	.st9{fill:url(#Path_371_1_);}
	.st10{fill:url(#Path_372_1_);}
	.st11{fill:url(#Path_373_1_);}
	.st12{fill:url(#Path_374_1_);}
	.st13{fill:url(#Path_375_1_);}
	.st14{fill:url(#Path_376_1_);}
	.st15{fill:url(#Path_377_1_);}
	.st16{fill:url(#Path_369_8_);}
	.st17{fill:url(#Path_369-2_8_);}
	.st18{fill:url(#Path_369-3_8_);}
	.st19{fill:url(#Path_952_1_);}
	.st20{fill:url(#Path_369_9_);}
	.st21{fill:url(#Path_369-2_9_);}
	.st22{fill:url(#Path_369-3_9_);}
	.st23{fill:url(#Document_1_);}
	.st24{fill:url(#Path_369_10_);}
	.st25{fill:url(#Path_369-2_10_);}
	.st26{fill:url(#Path_369-3_10_);}
	.st27{fill:url(#Path_953_1_);}
	.st28{fill:#FFFFFF;}
	.st29{fill:url(#Path_369_11_);}
	.st30{fill:url(#Path_369-2_11_);}
	.st31{fill:url(#Path_369-3_11_);}
	.st32{fill:url(#Path_369-4_1_);}
	.st33{fill:url(#Path_369-5_1_);}
	.st34{fill:url(#Path_369-6_1_);}
	.st35{fill:url(#Path_369-7_1_);}
	.st36{fill:url(#Path_369-8_1_);}
	.st37{fill:url(#Path_369-9_1_);}
</style>
<g id="Group_186" transform="translate(-647.253 219.93)">
	<g id="Group_143_1_" transform="translate(662.296 -204.888)" class="st0">
		<g id="Group_142_1_">
			
				<linearGradient id="Path_369_6_" gradientUnits="userSpaceOnUse" x1="15.3814" y1="576.6042" x2="16.3814" y2="576.6042" gradientTransform="matrix(241.4572 0 0 -241.4053 -3729.0813 139301.7188)">
				<stop  offset="0" style="stop-color:#171717"/>
				<stop  offset="0.118" style="stop-color:#F0F8F9"/>
				<stop  offset="0.352" style="stop-color:#008EA0"/>
				<stop  offset="0.625" style="stop-color:#259EAE"/>
				<stop  offset="0.905" style="stop-color:#E8F5F7"/>
				<stop  offset="1" style="stop-color:#171717"/>
			</linearGradient>
			<path id="Path_369_1_" class="st1" d="M21.9,193.42c-5.76-5.57-10.95-11.68-15.51-18.27c-18.31-26.28-25.35-58.79-19.55-90.29
				c5.63-31.53,23.64-59.5,50.02-77.67c54.79-37.96,129.99-24.32,167.95,30.47s24.32,129.99-30.47,167.95l0,0
				C127.1,238.33,63.34,233.23,21.9,193.42L21.9,193.42z M188.07,21C147.31-18.24,84.55-23.33,38,8.84
				C12.06,26.7-5.65,54.21-11.19,85.22c-5.71,30.98,1.21,62.96,19.22,88.8c37.34,53.89,111.29,67.31,165.18,29.97
				c53.9-37.38,67.29-111.38,29.9-165.28C198.69,32.33,193.65,26.4,188.07,21z"/>
		</g>
	</g>
	<g id="Group_145_1_" transform="matrix(0.616, -0.788, 0.788, 0.616, 647.253, -67.524)" class="st2">
		<g id="Group_142-2_1_">
			
				<linearGradient id="Path_369-2_6_" gradientUnits="userSpaceOnUse" x1="-326.8654" y1="294.1867" x2="-325.8654" y2="294.1867" gradientTransform="matrix(119.1431 152.3777 152.4103 -119.1176 -5891.4214 84925.8125)">
				<stop  offset="0" style="stop-color:#171717"/>
				<stop  offset="0.118" style="stop-color:#F0F8F9"/>
				<stop  offset="0.352" style="stop-color:#008EA0"/>
				<stop  offset="0.625" style="stop-color:#259EAE"/>
				<stop  offset="0.905" style="stop-color:#E8F5F7"/>
				<stop  offset="1" style="stop-color:#171717"/>
			</linearGradient>
			<path id="Path_369-2_1_" class="st3" d="M31.58,145.7c-4.61-4.46-8.77-9.36-12.42-14.64C4.48,110.01-1.16,83.96,3.49,58.72
				C8.01,33.46,22.44,11.05,43.57-3.5c43.91-30.36,104.11-19.43,134.57,24.41c30.35,43.92,19.43,104.11-24.42,134.57
				C115.86,181.69,64.78,177.6,31.58,145.7z M164.71,7.56C132.06-23.88,81.77-27.96,44.48-2.19C23.69,12.12,9.5,34.16,5.07,59.01
				c-4.57,24.82,0.97,50.44,15.4,71.15c29.92,43.18,89.17,53.92,132.34,24.01c43.18-29.95,53.91-89.24,23.96-132.42
				C173.22,16.63,169.18,11.88,164.71,7.56L164.71,7.56z"/>
		</g>
	</g>
	<g id="Group_146_1_" transform="matrix(0.799, 0.602, -0.602, 0.799, 768.683, -186.008)">
		<g id="Group_142-3_1_">
			
				<linearGradient id="Path_369-3_6_" gradientUnits="userSpaceOnUse" x1="263.1023" y1="500.3856" x2="264.1023" y2="500.3856" gradientTransform="matrix(116.1818 -87.5376 -87.5363 -116.1836 13213.5137 81238.3594)">
				<stop  offset="0" style="stop-color:#171717"/>
				<stop  offset="0.118" style="stop-color:#F0F8F9"/>
				<stop  offset="0.352" style="stop-color:#008EA0"/>
				<stop  offset="0.625" style="stop-color:#259EAE"/>
				<stop  offset="0.905" style="stop-color:#E8F5F7"/>
				<stop  offset="1" style="stop-color:#171717"/>
			</linearGradient>
			<path id="Path_369-3_1_" class="st4" d="M1.66,122.81c-3.47-3.35-6.6-7.04-9.34-11c-11.03-15.83-15.27-35.41-11.77-54.39
				c3.39-18.99,14.24-35.84,30.13-46.78C43.69-12.18,88.94-3.97,111.84,28.99c22.82,33.02,14.61,78.27-18.36,101.17
				c-15.83,11.03-35.41,15.27-54.39,11.77C24.99,139.42,11.96,132.76,1.66,122.81z M101.75,18.95C77.2-4.68,39.39-7.75,11.36,11.62
				c-15.63,10.76-26.3,27.33-29.63,46.01c-3.44,18.66,0.73,37.92,11.58,53.49c10.76,15.63,27.33,26.3,46.01,29.63
				c18.66,3.44,37.92-0.73,53.49-11.58c32.42-22.52,40.5-67.03,18.05-99.5C108.18,25.81,105.13,22.22,101.75,18.95z"/>
		</g>
	</g>
</g>
<g id="Group_190" transform="translate(-336.285 -18.892)">
	
		<linearGradient id="Path_371_1_" gradientUnits="userSpaceOnUse" x1="367.7251" y1="610.5135" x2="369.3141" y2="611.6616" gradientTransform="matrix(60.734 0 0 -60.7321 -21922.2773 37245.6602)">
		<stop  offset="0" style="stop-color:#218E9F"/>
		<stop  offset="1" style="stop-color:#FFFFFF;stop-opacity:0"/>
	</linearGradient>
	<path id="Path_371" class="st9" d="M485.91,109.63h-58.77c-0.54,0-0.98,0.44-0.98,0.98v47.02c0,2.71,2.19,4.9,4.9,4.9v6.86
		c0,0.54,0.44,0.98,0.98,0.98c0.26,0,0.51-0.1,0.69-0.29l7.55-7.55h41.71c2.71,0,4.9-2.19,4.9-4.9v-47.02
		C486.89,110.07,486.45,109.63,485.91,109.63C485.91,109.63,485.91,109.63,485.91,109.63z M484.93,111.59v7.84h-56.81v-7.84
		L484.93,111.59z M481.99,160.57h-42.12c-0.13,0-0.26,0.03-0.37,0.07c-0.12,0.05-0.23,0.12-0.32,0.21l-6.16,6.16v-5.47
		c0-0.54-0.44-0.98-0.98-0.98l0,0h-0.98c-1.62,0-2.94-1.32-2.94-2.94v-36.24h56.81v36.24C484.93,159.25,483.61,160.57,481.99,160.57
		C481.99,160.57,481.99,160.57,481.99,160.57z"/>
	
		<linearGradient id="Path_372_1_" gradientUnits="userSpaceOnUse" x1="383.5096" y1="615.8839" x2="385.0987" y2="617.0319" gradientTransform="matrix(5.878 0 0 -5.878 -1825.4209 3738.6909)">
		<stop  offset="0" style="stop-color:#218E9F"/>
		<stop  offset="1" style="stop-color:#FFFFFF;stop-opacity:0"/>
	</linearGradient>
	<path id="Path_372" class="st10" d="M433.01,118.45c1.62,0,2.94-1.31,2.94-2.94c0-1.62-1.31-2.94-2.94-2.94s-2.94,1.31-2.94,2.94
		c0,0,0,0,0,0C430.07,117.13,431.39,118.45,433.01,118.45z M433.01,114.53c0.54,0,0.98,0.44,0.98,0.98s-0.44,0.98-0.98,0.98
		c-0.54,0-0.98-0.44-0.98-0.98c0,0,0,0,0,0C432.03,114.97,432.47,114.53,433.01,114.53L433.01,114.53z"/>
	
		<linearGradient id="Path_373_1_" gradientUnits="userSpaceOnUse" x1="383.5096" y1="615.8839" x2="385.0987" y2="617.0319" gradientTransform="matrix(5.878 0 0 -5.878 -1818.5638 3738.6909)">
		<stop  offset="0" style="stop-color:#218E9F"/>
		<stop  offset="1" style="stop-color:#FFFFFF;stop-opacity:0"/>
	</linearGradient>
	<path id="Path_373" class="st11" d="M439.87,118.45c1.62,0,2.94-1.31,2.94-2.94c0-1.62-1.31-2.94-2.94-2.94s-2.94,1.31-2.94,2.94
		c0,0,0,0,0,0C436.93,117.13,438.25,118.45,439.87,118.45z M439.87,114.53c0.54,0,0.98,0.44,0.98,0.98s-0.44,0.98-0.98,0.98
		c-0.54,0-0.98-0.44-0.98-0.98c0,0,0,0,0,0C438.89,114.97,439.33,114.53,439.87,114.53L439.87,114.53z"/>
	
		<linearGradient id="Path_374_1_" gradientUnits="userSpaceOnUse" x1="383.5096" y1="615.8839" x2="385.0987" y2="617.0319" gradientTransform="matrix(5.878 0 0 -5.878 -1811.7089 3738.6909)">
		<stop  offset="0" style="stop-color:#218E9F"/>
		<stop  offset="1" style="stop-color:#FFFFFF;stop-opacity:0"/>
	</linearGradient>
	<path id="Path_374" class="st12" d="M446.72,118.45c1.62,0,2.94-1.31,2.94-2.94c0-1.62-1.31-2.94-2.94-2.94s-2.94,1.31-2.94,2.94
		c0,0,0,0,0,0C443.79,117.13,445.1,118.45,446.72,118.45z M446.72,114.53c0.54,0,0.98,0.44,0.98,0.98s-0.44,0.98-0.98,0.98
		c-0.54,0-0.98-0.44-0.98-0.98c0,0,0,0,0,0C445.75,114.97,446.18,114.53,446.72,114.53L446.72,114.53z"/>
	
		<linearGradient id="Path_375_1_" gradientUnits="userSpaceOnUse" x1="379.1534" y1="614.3836" x2="380.7424" y2="615.5316" gradientTransform="matrix(7.836 0 0 -7.836 -2533.7947 4958.3228)">
		<stop  offset="0" style="stop-color:#218E9F"/>
		<stop  offset="1" style="stop-color:#FFFFFF;stop-opacity:0"/>
	</linearGradient>
	<path id="Path_375" class="st13" d="M442.81,136.08c-2.16,0-3.92,1.75-3.92,3.92s1.75,3.92,3.92,3.92s3.92-1.75,3.92-3.92l0,0
		C446.73,137.84,444.97,136.08,442.81,136.08z M442.81,141.96c-1.08,0-1.96-0.88-1.96-1.96s0.88-1.96,1.96-1.96
		c1.08,0,1.96,0.88,1.96,1.96S443.89,141.96,442.81,141.96L442.81,141.96z"/>
	
		<linearGradient id="Path_376_1_" gradientUnits="userSpaceOnUse" x1="379.1534" y1="614.3836" x2="380.7424" y2="615.5316" gradientTransform="matrix(7.836 0 0 -7.836 -2520.092 4958.3228)">
		<stop  offset="0" style="stop-color:#218E9F"/>
		<stop  offset="1" style="stop-color:#FFFFFF;stop-opacity:0"/>
	</linearGradient>
	<path id="Path_376" class="st14" d="M456.52,136.08c-2.16,0-3.92,1.76-3.92,3.92s1.76,3.92,3.92,3.92c2.16,0,3.92-1.75,3.92-3.92
		C460.44,137.84,458.69,136.08,456.52,136.08C456.52,136.08,456.52,136.08,456.52,136.08z M456.52,141.96
		c-1.08,0-1.96-0.88-1.96-1.96s0.88-1.96,1.96-1.96c1.08,0,1.96,0.88,1.96,1.96C458.48,141.08,457.6,141.96,456.52,141.96
		C456.52,141.96,456.52,141.96,456.52,141.96z"/>
	
		<linearGradient id="Path_377_1_" gradientUnits="userSpaceOnUse" x1="379.1534" y1="614.3836" x2="380.7424" y2="615.5316" gradientTransform="matrix(7.836 0 0 -7.836 -2506.3677 4958.3228)">
		<stop  offset="0" style="stop-color:#218E9F"/>
		<stop  offset="1" style="stop-color:#FFFFFF;stop-opacity:0"/>
	</linearGradient>
	<path id="Path_377" class="st15" d="M470.23,136.08c-2.16,0-3.92,1.75-3.92,3.92s1.75,3.92,3.92,3.92s3.92-1.75,3.92-3.92l0,0
		C474.15,137.84,472.4,136.08,470.23,136.08z M470.23,141.96c-1.08,0-1.96-0.88-1.96-1.96s0.88-1.96,1.96-1.96
		c1.08,0,1.96,0.88,1.96,1.96S471.32,141.96,470.23,141.96L470.23,141.96z"/>
</g>
</svg>
