<?xml version="1.0" encoding="utf-8"?>
<!-- Generator: Adobe Illustrator 24.1.1, SVG Export Plug-In . SVG Version: 6.00 Build 0)  -->
<svg version="1.1" id="Layer_1" xmlns="http://www.w3.org/2000/svg" xmlns:xlink="http://www.w3.org/1999/xlink" x="0px" y="0px"
	 viewBox="0 0 242 242" style="enable-background:new 0 0 242 242;" xml:space="preserve">
<style type="text/css">
	.st0{opacity:0.28;}
	.st1{fill:url(#Path_369_6_);}
	.st2{opacity:0.67;}
	.st3{fill:url(#Path_369-2_6_);}
	.st4{fill:url(#Path_369-3_6_);}
	.st5{fill:url(#Path_951_1_);}
	.st6{fill:url(#Path_369_7_);}
	.st7{fill:url(#Path_369-2_7_);}
	.st8{fill:url(#Path_369-3_7_);}
	.st9{fill:url(#Path_371_1_);}
	.st10{fill:url(#Path_372_1_);}
	.st11{fill:url(#Path_373_1_);}
	.st12{fill:url(#Path_374_1_);}
	.st13{fill:url(#Path_375_1_);}
	.st14{fill:url(#Path_376_1_);}
	.st15{fill:url(#Path_377_1_);}
	.st16{fill:url(#Path_369_8_);}
	.st17{fill:url(#Path_369-2_8_);}
	.st18{fill:url(#Path_369-3_8_);}
	.st19{fill:url(#Path_952_1_);}
	.st20{fill:url(#Path_369_9_);}
	.st21{fill:url(#Path_369-2_9_);}
	.st22{fill:url(#Path_369-3_9_);}
	.st23{fill:url(#Document_1_);}
	.st24{fill:url(#Path_369_10_);}
	.st25{fill:url(#Path_369-2_10_);}
	.st26{fill:url(#Path_369-3_10_);}
	.st27{fill:url(#Path_953_1_);}
	.st28{fill:#FFFFFF;}
	.st29{fill:url(#Path_369_11_);}
	.st30{fill:url(#Path_369-2_11_);}
	.st31{fill:url(#Path_369-3_11_);}
	.st32{fill:url(#Path_369-4_1_);}
	.st33{fill:url(#Path_369-5_1_);}
	.st34{fill:url(#Path_369-6_1_);}
	.st35{fill:url(#Path_369-7_1_);}
	.st36{fill:url(#Path_369-8_1_);}
	.st37{fill:url(#Path_369-9_1_);}
</style>
<g id="Group_189" transform="translate(-647.253 219.93)">
	<g id="Group_143_3_" transform="translate(662.296 -204.888)" class="st0">
		<g id="Group_142_3_">
			
				<linearGradient id="Path_369_6_" gradientUnits="userSpaceOnUse" x1="-506.4442" y1="576.6042" x2="-505.4442" y2="576.6042" gradientTransform="matrix(241.4572 0 0 -241.4053 122270.4688 139301.7188)">
				<stop  offset="0" style="stop-color:#171717"/>
				<stop  offset="0.118" style="stop-color:#F0F8F9"/>
				<stop  offset="0.352" style="stop-color:#008EA0"/>
				<stop  offset="0.625" style="stop-color:#259EAE"/>
				<stop  offset="0.905" style="stop-color:#E8F5F7"/>
				<stop  offset="1" style="stop-color:#171717"/>
			</linearGradient>
			<path id="Path_369_3_" class="st1" d="M22.94,193.42c-5.76-5.57-10.95-11.68-15.51-18.27c-18.31-26.28-25.35-58.79-19.55-90.29
				c5.63-31.53,23.64-59.5,50.02-77.67C92.7-30.77,167.9-17.13,205.86,37.67s24.32,129.99-30.47,167.95l0,0
				C128.14,238.33,64.39,233.23,22.94,193.42L22.94,193.42z M189.11,21C148.35-18.24,85.59-23.33,39.05,8.84
				C13.1,26.7-4.61,54.21-10.15,85.22c-5.71,30.98,1.21,62.96,19.22,88.8c37.34,53.89,111.29,67.31,165.18,29.97
				c53.9-37.38,67.29-111.38,29.9-165.28C199.73,32.33,194.69,26.4,189.11,21z"/>
		</g>
	</g>
	<g id="Group_145_3_" transform="matrix(0.616, -0.788, 0.788, 0.616, 647.253, -67.524)" class="st2">
		<g id="Group_142-2_3_">
			
				<linearGradient id="Path_369-2_6_" gradientUnits="userSpaceOnUse" x1="-646.8065" y1="-118.5605" x2="-645.8065" y2="-118.5605" gradientTransform="matrix(119.1431 152.3777 152.4103 -119.1176 95134.9219 84513.0625)">
				<stop  offset="0" style="stop-color:#171717"/>
				<stop  offset="0.118" style="stop-color:#F0F8F9"/>
				<stop  offset="0.352" style="stop-color:#008EA0"/>
				<stop  offset="0.625" style="stop-color:#259EAE"/>
				<stop  offset="0.905" style="stop-color:#E8F5F7"/>
				<stop  offset="1" style="stop-color:#171717"/>
			</linearGradient>
			<path id="Path_369-2_3_" class="st3" d="M32.22,146.52c-4.61-4.46-8.77-9.36-12.42-14.63C5.12,110.83-0.52,84.78,4.14,59.54
				C8.65,34.28,23.08,11.88,44.21-2.68c43.91-30.36,104.11-19.43,134.57,24.41c30.35,43.92,19.43,104.11-24.42,134.57
				C116.5,182.51,65.42,178.42,32.22,146.52z M165.35,8.38C132.7-23.06,82.41-27.14,45.12-1.37C24.34,12.94,10.14,34.98,5.71,59.83
				c-4.57,24.82,0.97,50.44,15.4,71.15c29.92,43.18,89.17,53.92,132.34,24.01c43.18-29.95,53.91-89.24,23.96-132.42
				C173.86,17.45,169.82,12.7,165.35,8.38L165.35,8.38z"/>
		</g>
	</g>
	<g id="Group_146_3_" transform="matrix(0.799, 0.602, -0.602, 0.799, 768.683, -186.008)">
		<g id="Group_142-3_3_">
			
				<linearGradient id="Path_369-3_6_" gradientUnits="userSpaceOnUse" x1="-151.629" y1="815.5798" x2="-150.629" y2="815.5798" gradientTransform="matrix(116.1818 -87.5376 -87.5363 -116.1836 88989.5234 81553.5547)">
				<stop  offset="0" style="stop-color:#171717"/>
				<stop  offset="0.118" style="stop-color:#F0F8F9"/>
				<stop  offset="0.352" style="stop-color:#008EA0"/>
				<stop  offset="0.625" style="stop-color:#259EAE"/>
				<stop  offset="0.905" style="stop-color:#E8F5F7"/>
				<stop  offset="1" style="stop-color:#171717"/>
			</linearGradient>
			<path id="Path_369-3_3_" class="st4" d="M2.49,122.18c-3.47-3.35-6.6-7.04-9.34-11c-11.03-15.83-15.27-35.41-11.77-54.39
				C-15.23,37.8-4.38,20.95,11.5,10.01C44.52-12.81,89.78-4.6,112.67,28.37c22.82,33.02,14.61,78.27-18.36,101.17
				c-15.83,11.03-35.41,15.27-54.39,11.77C25.83,138.79,12.79,132.13,2.49,122.18z M102.58,18.33C78.03-5.31,40.23-8.37,12.19,11
				c-15.63,10.76-26.3,27.33-29.63,46.01c-3.44,18.66,0.73,37.92,11.58,53.49c10.76,15.63,27.33,26.3,46.01,29.63
				c18.66,3.44,37.92-0.73,53.49-11.58c32.42-22.52,40.5-67.03,18.05-99.5C109.01,25.18,105.96,21.59,102.58,18.33z"/>
		</g>
	</g>
</g>
<linearGradient id="Document_1_" gradientUnits="userSpaceOnUse" x1="-483.5097" y1="591.4735" x2="-481.9207" y2="592.6215" gradientTransform="matrix(58.7222 0 0 -70.015 28473.1484 41569.918)">
	<stop  offset="0" style="stop-color:#218E9F"/>
	<stop  offset="1" style="stop-color:#FFFFFF;stop-opacity:0"/>
</linearGradient>
<path id="Document" class="st23" d="M100.95,125.27h23.71c0.62,0,1.13-0.51,1.13-1.13c0-0.2-0.06-0.41-0.16-0.58l-6.78-11.29
	c-0.32-0.53-1.02-0.71-1.55-0.39c-0.16,0.1-0.29,0.23-0.39,0.39l-1.29,2.15l-4.11-6.85c-0.32-0.53-1.01-0.71-1.55-0.39c0,0,0,0,0,0
	c-0.16,0.1-0.29,0.23-0.39,0.39l-9.6,16c-0.32,0.53-0.15,1.23,0.39,1.55C100.54,125.22,100.75,125.27,100.95,125.27L100.95,125.27z
	 M117.89,115.04l4.78,7.97h-1.88l-3.84-6.4L117.89,115.04z M110.55,110.34l4.11,6.86l0,0l3.49,5.82h-15.21L110.55,110.34z
	 M122.97,110.59c2.18,0,3.95-1.77,3.95-3.95c0-2.18-1.77-3.95-3.95-3.95c-2.18,0-3.95,1.77-3.95,3.95
	C119.02,108.82,120.79,110.59,122.97,110.59z M122.97,104.94c0.94,0,1.69,0.76,1.69,1.69s-0.76,1.69-1.69,1.69
	c-0.93,0-1.69-0.76-1.69-1.69C121.28,105.7,122.03,104.94,122.97,104.94C122.97,104.94,122.97,104.94,122.97,104.94z M138.22,90.26
	h-3.39v-3.39c0-0.62-0.5-1.13-1.13-1.13c0,0,0,0,0,0h-32.75c-0.3,0-0.59,0.12-0.8,0.33l-7.91,7.9c-0.21,0.21-0.33,0.5-0.33,0.8
	v55.33c0,0.62,0.51,1.13,1.13,1.13c0,0,0,0,0,0h3.39v3.39c0,0.62,0.51,1.13,1.13,1.13c0,0,0,0,0,0h40.65c0.62,0,1.13-0.5,1.13-1.13
	c0,0,0,0,0,0V91.39C139.34,90.77,138.84,90.26,138.22,90.26z M99.82,89.6v4.05h-4.05L99.82,89.6z M94.18,95.91h6.78
	c0.62,0,1.13-0.51,1.13-1.13v-6.78h30.49v60.98H94.18V95.91z M137.09,153.5H98.69v-2.26h35.01c0.62,0,1.13-0.5,1.13-1.13
	c0,0,0,0,0,0V92.52h2.26V153.5z M147.25,85.75h-2.26c-1.87,0-3.39,1.52-3.39,3.39v58.72c0,0.18,0.04,0.35,0.12,0.51l3.39,6.77
	c0.28,0.56,0.96,0.78,1.51,0.51c0.22-0.11,0.4-0.29,0.51-0.51l3.39-6.77c0.08-0.16,0.12-0.33,0.12-0.51V89.14
	C150.64,87.27,149.12,85.75,147.25,85.75L147.25,85.75z M148.38,147.59l-0.13,0.27H144l-0.13-0.27v-0.86h4.52L148.38,147.59z
	 M148.38,95.91h-4.52v-1.13h4.52V95.91z M143.86,98.17h4.52v46.3h-4.52V98.17z M143.86,89.13c0-0.62,0.51-1.13,1.13-1.13h2.26
	c0.62,0,1.13,0.51,1.13,1.13v3.39h-4.52L143.86,89.13z M146.12,152.11l-1-1.99h1.99L146.12,152.11z"/>
</svg>
